<?xml version="1.0" encoding="utf-8"?>
<!-- Generator: Adobe Illustrator 24.3.0, SVG Export Plug-In . SVG Version: 6.00 Build 0)  -->
<svg version="1.1" id="Layer_1" xmlns="http://www.w3.org/2000/svg" xmlns:xlink="http://www.w3.org/1999/xlink" x="0px" y="0px" viewBox="0 0 2586 474" style="enable-background:new 0 0 2586 474;" xml:space="preserve">
	<style type="text/css">
		.st1{fill:#FFFFFF;}
		.st2{fill:#FFCD00;}
		.st3{fill:#FF671F;}
		.st4{fill:#C8102E;}
		.st5{fill:#97d700;}
	</style>
	<g transform="translate(0.000000,474.000000) scale(0.100000,-0.100000)">
		<path class="st1" d="M5454,1511c-61-182-132-285-303-435c-214-187-404-318-734-508C3936,293,3465,89,3173,30c-224-45-357-35-503,37 c-166,81-249,225-250,430c0,77,39,310,65,382c14,40,13,49-4,120c-11,42-24,101-30,132c-10,48-19,63-69,111c-51,49-69,59-167,93 c-395,136-949,424-1420,738C184,2481-19,2714,3,2983c15,175,142,300,394,390c83,30,310,77,507,106c76,11,140,22,142,23 c2,2-8,41-21,87c-28,96-55,264-55,342c1,173,98,346,237,421c119,65,321,62,548-7c245-74,521-177,654-244l60-31l6,33 c16,74,70,218,113,302c37,71,65,108,132,176c95,95,166,136,252,149c132,18,243-24,429-162c155-114,410-400,602-673 c38-55,73-103,76-107c3-4,65,51,138,122c192,188,331,284,518,356c92,36,216,39,285,7c115-53,191-140,275-318c68-141,95-229,138-445 c89-442,107-606,114-1046C5555,1959,5535,1754,5454,1511z"/>
		<path class="st2" d="M995,3244c-253-27-515-92-639-157c-64-34-96-74-96-122c0-60,89-176,225-294c272-235,639-477,1104-729 c189-102,522-264,529-258c2,2-48,80-111,172c-141,208-213,325-380,614c-109,189-314,591-382,748c-18,42-18,42-69,41 C1148,3258,1067,3251,995,3244z"/>
		<path class="st3" d="M1360,4139c-86-16-111-76-92-219c48-361,432-1153,907-1870c159-240,287-410,293-391c2,7-1,69-7,139 c-45,530-39,1325,14,1826c8,76,15,142,15,147c0,13-220,121-394,193c-190,80-348,131-496,162C1480,4151,1434,4153,1360,4139z"/>
		<path class="st4" d="M2973,4471c-42-26-77-80-112-171c-74-191-118-449-161-935c-31-355-29-1131,5-1517c17-201,43-433,52-462 c3-12,18,13,48,80c248,575,652,1300,1027,1843c67,96,123,181,125,190s-37,76-88,151c-218,319-414,549-602,706 C3125,4475,3036,4510,2973,4471z"/>
		<path class="st5" d="M4823,4032c-100-36-328-246-489-453c-357-456-697-1002-1051-1683c-220-425-402-862-468-1125 c-35-143-58-305-50-359c10-64,40-119,78-142c174-107,985,213,1719,677c243,153,475,346,572,472c195,256,229,1027,85,1901 c-56,338-161,623-256,696C4919,4049,4884,4053,4823,4032z"/>
		<path class="st1" d="M7695,3485c-307-54-565-191-775-411c-254-267-391-605-407-1000c-13-319,62-643,206-886c241-408,637-648,1115-674 c376-21,737,109,1022,369c81,73,204,243,263,362c79,158,90,135-111,240c-95,50-226,118-291,152l-119,62l-11-32 c-26-77-110-227-161-289c-90-108-199-179-331-213c-80-21-250-21-338-1c-271,63-456,285-524,625c-23,118-23,355,0,474 c40,199,100,319,222,443c132,135,265,188,461,187c129,0,219-23,324-81c114-63,232-198,285-328c14-34,30-58,37-56 c21,5,572,263,582,272c5,5-12,47-38,96c-184,346-484,584-846,671c-89,21-134,26-295,29C7832,3498,7751,3495,7695,3485z"/>
		<path class="st1" d="M9496,2413c4-750,9-1035,19-1115c55-431,337-703,788-759c109-14,350-5,452,15c218,44,462,165,603,299l32,31V742V600h340 h340v1410v1410h-340h-340v-642c0-846-11-1045-67-1203c-46-129-106-209-217-292c-111-82-218-115-376-116c-123,0-189,13-285,59 c-131,61-232,204-255,359c-6,42-10,418-10,953v882h-345h-345L9496,2413z"/>
		<path class="st1" d="M13960,3480c-308-26-543-153-680-368c-25-39-48-71-52-71c-5-1-8,85-8,189v190h-325h-325V2010V600h329h330l4,753 c3,726,4,755,25,846c60,265,228,449,486,535c57,19,197,43,309,52l77,6l-2,346l-3,347l-35,1C14071,3487,14012,3484,13960,3480z"/>
		<path class="st1" d="M15241,3500c-511-78-824-357-881-785c-7-52-10-99-6-102c6-6,543-41,654-42l42-1v58c0,81,24,143,77,202 c99,110,255,163,483,163c245,0,371-57,441-198c27-56,32-77,33-146l1-81l-60-19c-129-41-423-111-685-164c-410-83-517-115-676-206 c-377-216-538-655-387-1061c95-257,329-449,652-536c88-23,113-26,306-26c196-1,217,1,315,26c178,45,331,112,462,202l66,45l7-105 l7-104h339h339v1089c0,1180,0,1188-55,1322c-103,256-388,422-809,474C15734,3526,15401,3524,15241,3500z M16088,1720 c-3-195-3-195-34-260c-17-36-50-86-73-112c-181-204-628-281-882-152c-182,92-214,358-60,497c82,74,189,112,426,152 c279,48,478,100,585,155l35,18l3-51C16090,1938,16090,1827,16088,1720z"/>
		<path class="st1" d="M18286,3500c-339-43-662-212-872-457c-139-163-227-317-288-505c-92-279-109-588-50-876c124-606,555-1032,1144-1128 c71-12,137-15,260-11c173,5,260,19,395,64c265,87,511,265,665,481c68,95,175,304,167,325c-6,15-566,311-574,303c-3-3-22-43-43-90 c-115-260-288-408-521-445c-146-24-286-4-418,60c-332,162-490,655-365,1136c70,272,258,472,495,528c85,20,245,19,328-1 c100-25,217-89,286-159c71-70,136-165,161-232c9-27,20-52,24-56c6-7,582,252,599,269c8,8-58,134-117,223c-74,112-262,301-367,370 c-214,139-412,199-685,206C18425,3507,18324,3505,18286,3500z"/>
		<path class="st1" d="M20952,3500c-350-54-603-197-748-421c-78-120-119-242-139-411l-6-57l43-5c41-5,588-36,636-36c20,0,22,4,22,63 c0,51,6,76,31,125c77,156,259,236,534,235c318,0,453-105,479-370l5-53l-52-15c-146-45-464-121-729-175c-394-80-541-127-693-225 c-187-119-318-298-377-511c-17-64-21-106-21-219c0-123,3-151,27-229c47-155,108-258,221-371c134-134,322-222,554-261 c139-22,386-15,511,16c184,45,352,118,477,206l61,44l7-88c3-48,7-94,8-102c2-13,48-15,342-15h340l3,965c3,1056-3,1247-41,1377 c-81,278-326,451-752,529C21551,3523,21112,3525,20952,3500z M21807,1775c-5-229-15-283-67-365c-91-142-286-245-517-271 c-271-31-479,43-543,193c-65,152-17,308,122,399c80,51,177,81,373,114c264,44,449,92,580,150c45,20,50,21,54,6 C21811,1992,21810,1891,21807,1775z"/>
		<path class="st1" d="M24005,3496c-538-90-943-428-1109-926c-68-205-80-288-80-545s12-340,79-542c166-499,568-843,1100-940c141-26,448-23,585,6 c292,62,520,182,712,376c269,272,418,667,418,1105c-1,423-146,795-415,1065c-194,195-415,315-700,381c-105,24-145,28-315,30 C24150,3508,24058,3505,24005,3496z M24456,2872c249-79,429-281,503-567c102-386-3-812-249-1013c-118-96-263-145-435-145 c-387,0-676,274-745,705c-19,116-8,371,20,478c43,165,135,319,247,413c72,60,198,123,283,142C24171,2905,24374,2898,24456,2872z"/>
		<path class="st1" d="M25555,959c-75-21-155-129-155-208c0-85,58-177,134-212c50-23,134-24,184-3c122,51,175,204,109,316 C25770,950,25664,991,25555,959z M25726,923c22-11,53-40,72-67c27-41,32-57,32-108c0-92-43-159-122-193c-113-46-247,22-277,140 c-13,53-6,97,25,152C25510,942,25626,975,25726,923z"/>
		<path class="st1" d="M25530,745V600h30h30v65v65l28-6c35-9,32-4,46-66c11-51,13-53,47-56l37-3l-10,43c-6,24-16,57-24,75c-11,28-11,33,7,49 c29,26,25,78-7,103c-22,17-41,21-105,21h-79V745z M25675,810c0-22-5-25-42-28c-42-3-43-2-43,28s1,31,43,28 C25670,835,25675,832,25675,810z"/>
	</g>
</svg>
